<svg width="71" height="71" viewBox="0 0 71 71" fill="none" xmlns="http://www.w3.org/2000/svg">
<path d="M66.2162 17.7535C63.1061 12.377 58.6259 7.89608 53.2505 4.78538C48.0268 1.74176 41.9579 0 35.5003 0C29.0428 0 22.9738 1.74176 17.7502 4.78538C12.3747 7.89608 7.89518 12.377 4.78443 17.7535C1.74138 22.9781 0 29.0482 0 35.507C0 41.9657 1.74138 48.0359 4.78443 53.2604C7.89518 58.6369 12.3747 63.1179 17.7502 66.2286C22.9738 69.2722 28.0537 71 34.5106 71C42.931 66.6355 40.5986 57.8179 35.4997 54.8496C32.7781 54.8496 30.1919 54.275 27.8418 53.2604C23.3282 51.2991 19.7105 47.6808 17.7495 43.1663C16.7352 40.8157 16.1605 38.2291 16.1605 35.507C16.1605 32.7849 16.7352 30.1976 17.7495 27.8476C19.7105 23.3331 23.3282 19.7148 27.8418 17.7535C30.1913 16.739 32.7781 16.1643 35.4997 16.1643C38.2219 16.1643 40.8081 16.739 43.1576 17.7535C47.6712 19.7148 51.2889 23.3331 53.2498 27.8476C53.3005 27.9659 53.334 28.1014 53.3853 28.2198H36.2945C30.8981 32.445 31.9327 41.7442 36.2945 44.3834H71V35.507C71 29.0476 69.2586 22.9781 66.2156 17.7535H66.2162Z" fill="#5D3BE9"/>
</svg>
