<svg width="24" height="25" viewBox="0 0 24 25" fill="none" xmlns="http://www.w3.org/2000/svg">
<path d="M12 23.6644C6.443 22.4294 2 17.1864 2 11.6644V5.66437L12 1.66437L22 5.66437V11.6644C22 17.1884 17.557 22.4294 12 23.6644ZM4 6.66437V11.6644C4.05715 13.9765 4.87036 16.2062 6.31518 18.0122C7.75999 19.8182 9.75681 21.1011 12 21.6644C14.2432 21.1011 16.24 19.8182 17.6848 18.0122C19.1296 16.2062 19.9429 13.9765 20 11.6644V6.66437L12 3.66437L4 6.66437Z" fill="#130C2A"/>
<path d="M12 11.6644C13.3807 11.6644 14.5 10.5451 14.5 9.16437C14.5 7.78366 13.3807 6.66437 12 6.66437C10.6193 6.66437 9.5 7.78366 9.5 9.16437C9.5 10.5451 10.6193 11.6644 12 11.6644Z" fill="#130C2A"/>
<path d="M7 15.6644C7.49273 16.5627 8.21539 17.3139 9.09398 17.8411C9.97256 18.3682 10.9755 18.6524 12 18.6644C13.0245 18.6524 14.0274 18.3682 14.906 17.8411C15.7846 17.3139 16.5073 16.5627 17 15.6644C16.975 13.7684 13.658 12.6644 12 12.6644C10.333 12.6644 7.025 13.7684 7 15.6644Z" fill="#130C2A"/>
</svg>
