<svg width="24" height="24" viewBox="0 0 24 24" fill="none" xmlns="http://www.w3.org/2000/svg">
<path d="M22.5 19.5001H21.75V6.75006C21.75 6.55115 21.671 6.36038 21.5303 6.21973C21.3897 6.07908 21.1989 6.00006 21 6.00006H17.25V3.75006C17.25 3.55115 17.171 3.36038 17.0303 3.21973C16.8897 3.07908 16.6989 3.00006 16.5 3.00006H7.5C7.30109 3.00006 7.11032 3.07908 6.96967 3.21973C6.82902 3.36038 6.75 3.55115 6.75 3.75006V9.00006H3C2.80109 9.00006 2.61032 9.07908 2.46967 9.21973C2.32902 9.36038 2.25 9.55115 2.25 9.75006V19.5001H1.5C1.30109 19.5001 1.11032 19.5791 0.96967 19.7197C0.829018 19.8604 0.75 20.0511 0.75 20.2501C0.75 20.449 0.829018 20.6397 0.96967 20.7804C1.11032 20.921 1.30109 21.0001 1.5 21.0001H22.5C22.6989 21.0001 22.8897 20.921 23.0303 20.7804C23.171 20.6397 23.25 20.449 23.25 20.2501C23.25 20.0511 23.171 19.8604 23.0303 19.7197C22.8897 19.5791 22.6989 19.5001 22.5 19.5001ZM3.75 10.5001H7.5C7.69891 10.5001 7.88968 10.421 8.03033 10.2804C8.17098 10.1397 8.25 9.94897 8.25 9.75006V4.50006H15.75V6.75006C15.75 6.94897 15.829 7.13974 15.9697 7.28039C16.1103 7.42104 16.3011 7.50006 16.5 7.50006H20.25V19.5001H14.25V15.7501C14.25 15.5511 14.171 15.3604 14.0303 15.2197C13.8897 15.0791 13.6989 15.0001 13.5 15.0001H10.5C10.3011 15.0001 10.1103 15.0791 9.96967 15.2197C9.82902 15.3604 9.75 15.5511 9.75 15.7501V19.5001H3.75V10.5001ZM12.75 19.5001H11.25V16.5001H12.75V19.5001ZM10.5 6.75006C10.5 6.55115 10.579 6.36038 10.7197 6.21973C10.8603 6.07908 11.0511 6.00006 11.25 6.00006H12.75C12.9489 6.00006 13.1397 6.07908 13.2803 6.21973C13.421 6.36038 13.5 6.55115 13.5 6.75006C13.5 6.94897 13.421 7.13974 13.2803 7.28039C13.1397 7.42104 12.9489 7.50006 12.75 7.50006H11.25C11.0511 7.50006 10.8603 7.42104 10.7197 7.28039C10.579 7.13974 10.5 6.94897 10.5 6.75006ZM10.5 9.75006C10.5 9.55115 10.579 9.36038 10.7197 9.21973C10.8603 9.07908 11.0511 9.00006 11.25 9.00006H12.75C12.9489 9.00006 13.1397 9.07908 13.2803 9.21973C13.421 9.36038 13.5 9.55115 13.5 9.75006C13.5 9.94897 13.421 10.1397 13.2803 10.2804C13.1397 10.421 12.9489 10.5001 12.75 10.5001H11.25C11.0511 10.5001 10.8603 10.421 10.7197 10.2804C10.579 10.1397 10.5 9.94897 10.5 9.75006ZM15.75 9.75006C15.75 9.55115 15.829 9.36038 15.9697 9.21973C16.1103 9.07908 16.3011 9.00006 16.5 9.00006H18C18.1989 9.00006 18.3897 9.07908 18.5303 9.21973C18.671 9.36038 18.75 9.55115 18.75 9.75006C18.75 9.94897 18.671 10.1397 18.5303 10.2804C18.3897 10.421 18.1989 10.5001 18 10.5001H16.5C16.3011 10.5001 16.1103 10.421 15.9697 10.2804C15.829 10.1397 15.75 9.94897 15.75 9.75006ZM8.25 12.7501C8.25 12.949 8.17098 13.1397 8.03033 13.2804C7.88968 13.421 7.69891 13.5001 7.5 13.5001H6C5.80109 13.5001 5.61032 13.421 5.46967 13.2804C5.32902 13.1397 5.25 12.949 5.25 12.7501C5.25 12.5511 5.32902 12.3604 5.46967 12.2197C5.61032 12.0791 5.80109 12.0001 6 12.0001H7.5C7.69891 12.0001 7.88968 12.0791 8.03033 12.2197C8.17098 12.3604 8.25 12.5511 8.25 12.7501ZM8.25 15.7501C8.25 15.949 8.17098 16.1397 8.03033 16.2804C7.88968 16.421 7.69891 16.5001 7.5 16.5001H6C5.80109 16.5001 5.61032 16.421 5.46967 16.2804C5.32902 16.1397 5.25 15.949 5.25 15.7501C5.25 15.5511 5.32902 15.3604 5.46967 15.2197C5.61032 15.0791 5.80109 15.0001 6 15.0001H7.5C7.69891 15.0001 7.88968 15.0791 8.03033 15.2197C8.17098 15.3604 8.25 15.5511 8.25 15.7501ZM10.5 12.7501C10.5 12.5511 10.579 12.3604 10.7197 12.2197C10.8603 12.0791 11.0511 12.0001 11.25 12.0001H12.75C12.9489 12.0001 13.1397 12.0791 13.2803 12.2197C13.421 12.3604 13.5 12.5511 13.5 12.7501C13.5 12.949 13.421 13.1397 13.2803 13.2804C13.1397 13.421 12.9489 13.5001 12.75 13.5001H11.25C11.0511 13.5001 10.8603 13.421 10.7197 13.2804C10.579 13.1397 10.5 12.949 10.5 12.7501ZM15.75 12.7501C15.75 12.5511 15.829 12.3604 15.9697 12.2197C16.1103 12.0791 16.3011 12.0001 16.5 12.0001H18C18.1989 12.0001 18.3897 12.0791 18.5303 12.2197C18.671 12.3604 18.75 12.5511 18.75 12.7501C18.75 12.949 18.671 13.1397 18.5303 13.2804C18.3897 13.421 18.1989 13.5001 18 13.5001H16.5C16.3011 13.5001 16.1103 13.421 15.9697 13.2804C15.829 13.1397 15.75 12.949 15.75 12.7501ZM15.75 15.7501C15.75 15.5511 15.829 15.3604 15.9697 15.2197C16.1103 15.0791 16.3011 15.0001 16.5 15.0001H18C18.1989 15.0001 18.3897 15.0791 18.5303 15.2197C18.671 15.3604 18.75 15.5511 18.75 15.7501C18.75 15.949 18.671 16.1397 18.5303 16.2804C18.3897 16.421 18.1989 16.5001 18 16.5001H16.5C16.3011 16.5001 16.1103 16.421 15.9697 16.2804C15.829 16.1397 15.75 15.949 15.75 15.7501Z" fill="#130C2A"/>
</svg>
