<svg width="24" height="25" viewBox="0 0 24 25" fill="none" xmlns="http://www.w3.org/2000/svg">
<path d="M5 13.6644H8M2 9.66437L4 10.6644L5.27064 6.85244C5.53292 6.06562 5.66405 5.67221 5.90729 5.38135C6.12208 5.1245 6.39792 4.92569 6.70951 4.80314C7.06236 4.66437 7.47705 4.66437 8.30643 4.66437H15.6936C16.523 4.66437 16.9376 4.66437 17.2905 4.80314C17.6021 4.92569 17.8779 5.1245 18.0927 5.38135C18.3359 5.67221 18.4671 6.06562 18.7294 6.85244L20 10.6644L22 9.66437M16 13.6644H19M6.8 10.6644H17.2C18.8802 10.6644 19.7202 10.6644 20.362 10.9913C20.9265 11.279 21.3854 11.7379 21.673 12.3024C22 12.9441 22 13.7842 22 15.4644V18.1644C22 18.629 22 18.8614 21.9616 19.0545C21.8038 19.8479 21.1836 20.4681 20.3902 20.6259C20.197 20.6644 19.9647 20.6644 19.5 20.6644H19C17.8954 20.6644 17 19.7689 17 18.6644C17 18.3882 16.7761 18.1644 16.5 18.1644H7.5C7.22386 18.1644 7 18.3882 7 18.6644C7 19.7689 6.10457 20.6644 5 20.6644H4.5C4.03534 20.6644 3.80302 20.6644 3.60982 20.6259C2.81644 20.4681 2.19624 19.8479 2.03843 19.0545C2 18.8614 2 18.629 2 18.1644V15.4644C2 13.7842 2 12.9441 2.32698 12.3024C2.6146 11.7379 3.07354 11.279 3.63803 10.9913C4.27976 10.6644 5.11984 10.6644 6.8 10.6644Z" stroke="black" stroke-width="2" stroke-linecap="round" stroke-linejoin="round"/>
</svg>
