<svg width="24" height="25" viewBox="0 0 24 25" fill="none" xmlns="http://www.w3.org/2000/svg">
<g opacity="0.8">
<path d="M17.9981 7.82437C17.9381 7.81437 17.8681 7.81437 17.8081 7.82437C16.4281 7.77437 15.3281 6.64437 15.3281 5.24437C15.3281 3.81437 16.4781 2.66437 17.9081 2.66437C19.3381 2.66437 20.4881 3.82437 20.4881 5.24437C20.4781 6.64437 19.3781 7.77437 17.9981 7.82437Z" stroke="#130C2A" stroke-width="1.5" stroke-linecap="round" stroke-linejoin="round"/>
<path d="M16.9675 15.1044C18.3375 15.3344 19.8475 15.0944 20.9075 14.3844C22.3175 13.4444 22.3175 11.9044 20.9075 10.9644C19.8375 10.2544 18.3075 10.0144 16.9375 10.2544" stroke="#130C2A" stroke-width="1.5" stroke-linecap="round" stroke-linejoin="round"/>
<path d="M5.97047 7.82437C6.03047 7.81437 6.10047 7.81437 6.16047 7.82437C7.54047 7.77437 8.64047 6.64437 8.64047 5.24437C8.64047 3.81437 7.49047 2.66437 6.06047 2.66437C4.63047 2.66437 3.48047 3.82437 3.48047 5.24437C3.49047 6.64437 4.59047 7.77437 5.97047 7.82437Z" stroke="#130C2A" stroke-width="1.5" stroke-linecap="round" stroke-linejoin="round"/>
<path d="M7.0014 15.1044C5.6314 15.3344 4.12141 15.0944 3.06141 14.3844C1.65141 13.4444 1.65141 11.9044 3.06141 10.9644C4.13141 10.2544 5.6614 10.0144 7.0314 10.2544" stroke="#130C2A" stroke-width="1.5" stroke-linecap="round" stroke-linejoin="round"/>
<path d="M11.9981 15.2944C11.9381 15.2844 11.8681 15.2844 11.8081 15.2944C10.4281 15.2444 9.32812 14.1144 9.32812 12.7144C9.32812 11.2844 10.4781 10.1344 11.9081 10.1344C13.3381 10.1344 14.4881 11.2944 14.4881 12.7144C14.4781 14.1144 13.3781 15.2544 11.9981 15.2944Z" stroke="#130C2A" stroke-width="1.5" stroke-linecap="round" stroke-linejoin="round"/>
<path d="M9.08875 18.4444C7.67875 19.3844 7.67875 20.9244 9.08875 21.8644C10.6888 22.9344 13.3087 22.9344 14.9087 21.8644C16.3187 20.9244 16.3187 19.3844 14.9087 18.4444C13.3187 17.3844 10.6888 17.3844 9.08875 18.4444Z" stroke="#130C2A" stroke-width="1.5" stroke-linecap="round" stroke-linejoin="round"/>
</g>
</svg>
